<mxfile host="app.diagrams.net" modified="2023-10-31T10:58:48.313Z" agent="Mozilla/5.0 (Macintosh; Intel Mac OS X 10_15_7) AppleWebKit/537.36 (KHTML, like Gecko) Chrome/118.0.0.0 Safari/537.36" version="22.0.8" etag="Xh0351q86mTv7XzsmUz3" type="github">
  <diagram name="Halaman-1" id="T5wHR7lvQfT2X07eQTTv">
    <mxGraphModel>
      <root>
        <mxCell id="0" />
        <mxCell id="1" parent="0" />
      </root>
    </mxGraphModel>
  </diagram>
</mxfile>
